:SAMPLES-PER-SECOND 30
:FULLY-SPECIFIED
:DEGREES
168
root  -5.88137 39.0011 12.3197 -4.98674 -49.0877 4.07793
RightUpLeg  11.784 1.95684 1.97263
RightLeg  34.1179 17.9719 12.4638
RightFoot  39.9826 -12.3299 25.9617
RightToes  -1.33073e-015 0 -3.6325e-017
Spine  -6.20715 29.8761 37.3869
Spine1  -10.2015 29.7957 -38.0364
HEad  11.7319 -69.0093 -5.22303
LeftShoulder1  3.02948 -8.34677 -19.0512
LeftArm  -74.7018 -20.3599 -10.6103
LeftForeArm  178.174 -69.3224 -155.34
LeftHand  -0.246645 0.021 5.37786
RightShoulder  2.03927 10.1827 7.32351
RightArm  121.052 49.5365 165.899
RightForeArm  69.4894 67.5335 19.5372
RightHand  -0.24729 -0.0210522 -5.37781
LeftUpLeg  -10.234 -7.57216 -12.1087
LeftLeg  96.0876 -75.8904 -98.025
LeftFoot  9.3801 4.12434 -22.6152
LeftToes  5.09284e-011 3.02203e-011 3.83118e-011
169
root  -5.89891 38.9934 12.2743 -4.16995 -46.9484 3.50023
RightUpLeg  11.9026 0.713987 2.47625
RightLeg  33.286 18.6073 12.5048
RightFoot  39.5259 -12.6015 26.7612
RightToes  -1.33073e-015 0 -3.6325e-017
Spine  -6.71979 30.1151 36.6127
Spine1  -10.3679 29.9045 -38.209
HEad  12.6634 -69.181 -6.20456
LeftShoulder1  2.68581 -7.64132 -17.4753
LeftArm  -75.4431 -19.8357 -10.4914
LeftForeArm  -177.492 -67.9826 -157.383
LeftHand  -0.246645 0.021 5.37786
RightShoulder  2.03965 10.3328 7.14447
RightArm  119.778 49.9822 165.728
RightForeArm  70.6703 69.2967 21.6339
RightHand  -0.24729 -0.0210522 -5.37781
LeftUpLeg  -10.5428 -7.73596 -11.9014
LeftLeg  99.4666 -75.6564 -101.514
LeftFoot  9.21493 4.2435 -23.4235
LeftToes  5.09284e-011 3.02203e-011 3.83118e-011
170
root  -5.90725 38.9956 12.2122 -3.63303 -45.5741 3.15021
RightUpLeg  11.8029 -0.11067 2.89222
RightLeg  32.8039 18.6842 12.3351
RightFoot  39.4631 -12.8021 27.2029
RightToes  -1.33073e-015 0 -3.6325e-017
Spine  -7.03941 30.2007 35.9571
Spine1  -10.2492 29.9766 -37.9313
HEad  12.9437 -69.3207 -6.86469
LeftShoulder1  2.50222 -7.22918 -16.6191
LeftArm  -75.7285 -19.2809 -9.67698
LeftForeArm  -174.078 -67.0734 -158.7
LeftHand  -0.246645 0.021 5.37786
RightShoulder  1.99397 10.3373 6.76695
RightArm  118.438 50.3468 165.536
RightForeArm  71.7842 70.5762 23.3808
RightHand  -0.24729 -0.0210522 -5.37781
LeftUpLeg  -10.8123 -7.80843 -11.7148
LeftLeg  101.458 -75.5388 -103.571
LeftFoot  9.06782 4.29733 -23.874
LeftToes  5.09284e-011 3.02203e-011 3.83118e-011
171
root  -5.91364 39.0077 12.1442 -3.34346 -44.9868 3.00537
RightUpLeg  11.5827 -0.628612 3.11821
RightLeg  32.6668 18.3702 12.0755
RightFoot  39.5702 -12.7775 27.0919
RightToes  -1.33073e-015 0 -3.6325e-017
Spine  -7.17595 30.1752 35.4937
Spine1  -9.96487 30.0169 -37.4684
HEad  13.8139 -69.5401 -7.99372
LeftShoulder1  2.3487 -6.89814 -15.8131
LeftArm  -75.7957 -18.8359 -9.11658
LeftForeArm  -172.933 -66.4481 -159.427
LeftHand  -0.246645 0.021 5.37786
RightShoulder  1.93564 10.2938 6.34282
RightArm  116.951 50.6058 165.313
RightForeArm  71.7913 70.9591 24.0134
RightHand  -0.24729 -0.0210522 -5.37781
LeftUpLeg  -10.9707 -7.73618 -11.5675
LeftLeg  101.968 -75.6433 -104.079
LeftFoot  8.9964 4.33507 -24.1571
LeftToes  5.09284e-011 3.02203e-011 3.83118e-011
172
root  -5.93235 39.0237 12.0744 -3.16965 -44.9603 3.01248
RightUpLeg  11.3397 -1.04167 3.08815
RightLeg  32.6686 18.0726 11.8885
RightFoot  39.6609 -12.6462 26.7758
RightToes  -1.33073e-015 0 -3.6325e-017
Spine  -7.19243 29.9814 35.2601
Spine1  -9.81744 29.881 -37.291
HEad  15.3673 -69.7413 -9.29574
LeftShoulder1  2.12732 -6.44569 -14.501
LeftArm  -75.6857 -18.8569 -9.48596
LeftForeArm  -172.658 -66.3635 -159.533
LeftHand  -0.246645 0.021 5.37786
RightShoulder  1.97698 10.3924 6.56359
RightArm  115.509 50.7204 164.806
RightForeArm  71.086 70.8316 23.8982
RightHand  -0.24729 -0.0210522 -5.37781
LeftUpLeg  -11.1298 -7.71713 -11.4411
LeftLeg  100.995 -75.851 -103.045
LeftFoot  8.95908 4.33316 -24.1897
LeftToes  5.09284e-011 3.02203e-011 3.83118e-011
